<!-- Generated by IcoMoon.io -->
<svg version="1.1" xmlns="http://www.w3.org/2000/svg" width="32" height="32" viewBox="0 0 32 32">
<title>icon_notification</title>
<path d="M12 28h8c-0.007 2.206-1.794 3.993-3.999 4h-0.001c-2.206-0.007-3.993-1.794-4-3.999v-0.001zM2 26c-0.034 0.002-0.073 0.003-0.113 0.003-1.044 0-1.89-0.846-1.89-1.89 0-0.040 0.001-0.079 0.004-0.119l-0 0.005c-0.002-0.034-0.003-0.073-0.003-0.113 0-1.044 0.846-1.89 1.89-1.89 0.040 0 0.079 0.001 0.119 0.004l-0.005-0h1c1.708-1.479 2.831-3.594 2.998-5.972l0.002-0.028v-6c-0-0.029-0-0.063-0-0.096 0-5.47 4.434-9.904 9.904-9.904 0.034 0 0.068 0 0.102 0.001l-0.005-0c0.029-0 0.064-0.001 0.098-0.001 5.469 0 9.902 4.433 9.902 9.902 0 0.035-0 0.069-0.001 0.104l0-0.005v6c0.169 2.406 1.292 4.521 2.989 5.991l0.011 0.009h1c0.034-0.002 0.073-0.003 0.113-0.003 1.044 0 1.89 0.846 1.89 1.89 0 0.040-0.001 0.079-0.004 0.119l0-0.005c0.002 0.034 0.003 0.073 0.003 0.113 0 1.044-0.846 1.89-1.89 1.89-0.040 0-0.079-0.001-0.119-0.004l0.005 0z"></path>
</svg>
